<?xml version="1.0"?>
<svg xmlns="http://www.w3.org/2000/svg" xmlns:xlink="http://www.w3.org/1999/xlink" xmlns:svgjs="http://svgjs.com/svgjs" version="1.1" width="512" height="512" x="0" y="0" viewBox="0 0 512 512" style="enable-background:new 0 0 512 512" xml:space="preserve" class=""><g>
<g xmlns="http://www.w3.org/2000/svg">
	<g>
		<path d="M467,0H45C20.187,0,0,20.187,0,45v302c0,24.813,20.187,45,45,45h135v30h-15c-24.813,0-45,20.187-45,45v30    c0,8.284,6.716,15,15,15h242c8.284,0,15-6.716,15-15v-30c0-24.813-20.187-45-45-45h-15v-30h135c24.813,0,45-20.187,45-45V45    C512,20.187,491.813,0,467,0z M347,452c8.271,0,15,6.729,15,15v15H150v-15c0-8.271,6.729-15,15-15H347z M210,422v-30h92v30H210z     M482,347c0,8.271-6.729,15-15,15H45c-8.271,0-15-6.729-15-15v-15h452V347z M482,302H30V45c0-8.271,6.729-15,15-15h422    c8.271,0,15,6.729,15,15V302z" fill="#ff7512" data-original="#000000" style="" class=""/>
	</g>
</g>
<g xmlns="http://www.w3.org/2000/svg">
	<g>
		<path d="M399.886,77.24c-4.423-2.732-9.944-2.981-14.594-0.657l-69.19,34.595c-1.801-8.735-6.27-16.778-13.024-23.234    C294.347,79.597,282.954,75,271,75H150c-24.813,0-45,20.187-45,45v92c0,24.813,20.187,45,45,45h121    c11.954,0,23.347-4.597,32.078-12.944c6.754-6.457,11.223-14.5,13.024-23.235l69.19,34.595c4.659,2.33,10.182,2.07,14.594-0.657    c4.423-2.733,7.114-7.561,7.114-12.76V90C407,84.801,404.309,79.973,399.886,77.24z M287,212c0,7.991-7.477,15-16,15H150    c-8.271,0-15-6.729-15-15v-92c0-8.271,6.729-15,15-15h121c8.523,0,16,7.009,16,15V212z M377,217.729l-60-30V144.27l60-30V217.729z    " fill="#ff7512" data-original="#000000" style="" class=""/>
	</g>
</g>
<g xmlns="http://www.w3.org/2000/svg">
</g>
<g xmlns="http://www.w3.org/2000/svg">
</g>
<g xmlns="http://www.w3.org/2000/svg">
</g>
<g xmlns="http://www.w3.org/2000/svg">
</g>
<g xmlns="http://www.w3.org/2000/svg">
</g>
<g xmlns="http://www.w3.org/2000/svg">
</g>
<g xmlns="http://www.w3.org/2000/svg">
</g>
<g xmlns="http://www.w3.org/2000/svg">
</g>
<g xmlns="http://www.w3.org/2000/svg">
</g>
<g xmlns="http://www.w3.org/2000/svg">
</g>
<g xmlns="http://www.w3.org/2000/svg">
</g>
<g xmlns="http://www.w3.org/2000/svg">
</g>
<g xmlns="http://www.w3.org/2000/svg">
</g>
<g xmlns="http://www.w3.org/2000/svg">
</g>
<g xmlns="http://www.w3.org/2000/svg">
</g>
</g></svg>
